<svg width="45" height="52" viewBox="0 0 45 52" fill="none" xmlns="http://www.w3.org/2000/svg">
<path d="M34.1517 6.52981L23.8546 0.698022C23.5501 0.526499 23.218 0.429148 22.8812 0.396698C22.8904 0.507956 22.8212 2.78875 22.8074 3.22451L31.0285 7.9159C31.1761 7.99471 31.3468 8.01325 31.5129 7.95763L34.1102 7.05365C34.3455 6.97021 34.3732 6.6457 34.1563 6.52981H34.1517ZM41.5516 36.9033L23.6931 47.5795L23.587 47.649L22.2538 48.4464L20.8836 47.6258H20.879L3.07584 36.9682V37.0424L0.52002 38.1828C0.732236 38.5768 1.04595 38.9245 1.44731 39.1609L20.8651 50.7781L22.2538 51.608L23.7162 50.7318L43.1248 39.1146C43.3139 39.0033 43.4939 38.855 43.6415 38.6927L41.5516 36.9033Z" fill="black"/>
<path d="M41.5657 14.3411V14.5914L41.561 14.596V14.3457L41.5657 14.3411Z" fill="#29ABE2"/>
<path d="M0.229492 37.047C0.234106 37.4457 0.340214 37.8351 0.52475 38.1828H0.515523L0.469389 38.0993C0.317147 37.8212 0.234106 37.5106 0.234106 37.1907V37.047H0.229492Z" fill="#29ABE2"/>
<path d="M22.8812 0.401334C22.8443 0.401334 22.8074 0.401334 22.7705 0.396698C22.8028 0.396698 22.8397 0.396698 22.8812 0.396698V0.401334Z" fill="#29ABE2"/>
<path d="M41.5611 14.3459V14.5962L41.5471 14.6009V14.3505L41.5611 14.3459Z" fill="#29ABE2"/>
<path d="M41.5657 14.3411V14.5914L41.561 14.596V14.3457L41.5657 14.3411Z" fill="#29ABE2"/>
<path d="M44.2693 15.5139V37.0934C44.2693 37.6868 44.0386 38.2662 43.6419 38.6927L41.5474 36.908L41.5566 36.894H41.5474V14.6099H41.5566L41.5612 14.6007V14.3503H41.5566V14.3457L41.5474 14.3596V14.6099L22.4756 26.6212L3.26538 15.0828L3.08084 36.9682V37.0424L0.525019 38.1828C0.345096 37.8397 0.238988 37.4503 0.234375 37.047V13.2795C0.234375 12.5609 0.787983 12.2179 0.949452 12.1344C0.954066 12.1298 0.958679 12.1252 0.963292 12.1252C1.28162 11.949 3.6852 10.7669 3.92048 10.6325C4.22958 10.4656 12.5337 5.84371 13.0366 5.56093C13.5302 5.28279 20.2289 1.55564 20.5333 1.38875C20.7548 1.25895 21.5022 0.837092 21.6498 0.76292C22.3372 0.452324 22.4756 0.392059 22.7616 0.392059H22.7708C22.8124 0.392059 22.8447 0.396695 22.8816 0.396695C22.8908 0.512589 22.8216 2.79338 22.8124 3.22914H22.8078V3.29868L5.78891 12.8484L6.24564 13.1358L22.3141 23.0563L31.8869 17.2013L40.454 11.8238C41.2198 11.3417 42.1887 11.3232 42.9775 11.7589C43.3651 11.9722 43.6788 12.2828 43.9095 12.6536C44.034 12.8576 44.1217 13.0755 44.1816 13.3073C44.2232 13.451 44.2462 13.5901 44.2555 13.7384L44.2647 15.5093L44.2693 15.5139Z" fill="#29ABE2"/>
<path d="M41.5658 14.3411V14.5914L41.5611 14.596L41.5471 14.6007V14.3503L41.5611 14.3457L41.5658 14.3411Z" fill="#29ABE2"/>
<path d="M22.5722 35.9993L22.5122 35.953L22.2308 35.7954L13.6083 30.8861C13.4838 30.8119 13.3408 30.8954 13.3315 31.0391L13.2116 33.4404C13.207 33.6397 13.2992 33.8205 13.4699 33.9133L20.8745 38.155V50.6854H23.5825V38.1364C23.5825 37.2556 23.1996 36.4583 22.5722 36.004V35.9993Z" fill="#29ABE2"/>
<path d="M31.1854 31.0159C31.1762 30.8768 31.0147 30.7887 30.8948 30.8629L22.2308 35.7954L21.9909 35.9298L21.9309 35.9762C21.3035 36.4351 20.9252 37.2278 20.9252 38.1086L20.8837 47.6212V49.151L20.8652 50.7781L22.2539 51.608L23.7163 50.7318L23.6933 47.5748L23.624 38.1225L31.19 33.7464C31.3377 33.6629 31.4207 33.496 31.4022 33.3291L31.1854 31.0066V31.0159Z" fill="#29ABE2"/>
</svg>
