<?xml version="1.0" encoding="UTF-8"?>
<svg id="Layer_1" data-name="Layer 1" xmlns="http://www.w3.org/2000/svg" viewBox="0 0 278 151">
  <defs>
    <style>
      .cls-1 {
        fill: #fff;
      }
    </style>
  </defs>
  <g>
    <path class="cls-1" d="M180.53,21.12l-18.74-10.56c-.55-.31-1.16-.49-1.77-.54,.02,.2-.11,4.33-.13,5.12l14.96,8.49c.27,.14,.58,.17,.88,.07l4.72-1.64c.43-.15,.48-.74,.08-.95Zm13.46,55h0s-32.5,19.33-32.5,19.33l-.19,.12-2.42,1.44-2.49-1.48h-.01s-32.38-19.29-32.38-19.29v.13l-4.65,2.06c.39,.72,.96,1.34,1.69,1.77l35.33,21.04,2.52,1.5,2.66-1.58,35.32-21.04c.35-.2,.67-.47,.94-.77l-3.8-3.24Z"/>
    <polygon class="cls-1" points="194.02 35.26 194.02 35.72 194.01 35.73 194.01 35.27 194.02 35.26"/>
    <path class="cls-1" d="M118.81,76.38c.01,.73,.2,1.43,.53,2.06h-.02s-.09-.15-.09-.15c-.28-.5-.43-1.07-.43-1.64v-.26Z"/>
    <path class="cls-1" d="M160.03,10.02c-.07,0-.13,0-.2-.01,.06,0,.13,0,.2,0h0Z"/>
    <g>
      <polygon class="cls-1" points="194.01 35.27 194.01 35.73 193.99 35.74 193.99 35.28 194.01 35.27"/>
      <polygon class="cls-1" points="194.02 35.26 194.02 35.72 194.01 35.73 194.01 35.27 194.02 35.26"/>
    </g>
    <g>
      <path class="cls-1" d="M198.94,37.38v39.07c0,1.08-.42,2.12-1.14,2.9l-3.81-3.24h0s.02-.03,.02-.03h-.02s0-40.35,0-40.35h.02s0-.02,0-.02v-.46h0s0,0,0,0l-.02,.03v.46l-34.7,21.75-34.96-20.88-.34,39.62v.14l-4.65,2.06c-.33-.62-.52-1.33-.53-2.05V33.34c0-1.3,1.01-1.92,1.3-2.07,0,0,.02-.02,.03-.02,.58-.32,4.95-2.46,5.38-2.7,.56-.3,15.68-8.67,16.59-9.18,.9-.5,13.09-7.26,13.64-7.56,.41-.23,1.76-1,2.03-1.13,1.25-.56,1.5-.67,2.02-.67h.02c.08,0,.14,0,.2,0,.02,.21-.11,4.34-.13,5.13h0v.13l-30.96,17.29,.83,.52,29.24,17.96,17.42-10.6,15.59-9.74c1.4-.87,3.16-.91,4.59-.12,.71,.39,1.28,.95,1.7,1.62,.22,.37,.39,.77,.49,1.18,.08,.26,.12,.51,.14,.78l.02,3.21Z"/>
      <polygon class="cls-1" points="194.02 35.26 194.02 35.72 194.01 35.73 193.99 35.74 193.99 35.28 194.01 35.27 194.02 35.26"/>
    </g>
    <g>
      <path class="cls-1" d="M159.47,74.48l-.11-.08-.51-.29-15.69-8.89c-.22-.13-.49,.02-.5,.28l-.21,4.34c-.01,.36,.16,.68,.47,.86l13.47,7.68v22.69h4.93v-22.72c0-1.59-.7-3.04-1.84-3.86Z"/>
      <path class="cls-1" d="M175.14,65.45c-.02-.26-.31-.41-.53-.28l-15.76,8.93-.44,.25-.11,.08c-1.15,.83-1.83,2.27-1.83,3.86l-.07,17.22v2.77s-.03,2.94-.03,2.94l2.52,1.5,2.66-1.58-.04-5.71-.12-17.11,13.77-7.92c.27-.15,.42-.45,.39-.76l-.4-4.2Z"/>
    </g>
  </g>
  <g>
    <path class="cls-1" d="M8.97,58.08h6.17v23.56c0,1.87,.57,3.39,1.71,4.56s2.7,1.76,4.7,1.76c2.23,0,3.97-.57,5.21-1.72,1.24-1.15,1.86-2.72,1.86-4.71v-23.44h6.17v23.91c0,3.57-1.2,6.37-3.59,8.4-2.4,2.02-5.59,3.04-9.6,3.04s-7.14-.99-9.34-2.96-3.28-4.81-3.28-8.49v-23.89Z"/>
    <path class="cls-1" d="M75.57,92.85h-5.98l-3.61-18.74-7,19.19h-2.21l-7-19.19-3.75,18.74h-5.96l7-34.78h3.27l7.52,23.41,7.35-23.41h3.25l7.09,34.78Z"/>
    <path class="cls-1" d="M94.77,63.55v29.27h-6.17v-29.27h-11.05v-5.48h28.78v5.48h-11.55Z"/>
    <path class="cls-1" d="M9.09,140.4v-34.75h6.17v34.75h-6.17Z"/>
    <path class="cls-1" d="M46.56,140.88l-16.87-21.99v21.54h-5.93v-34.78h2.96l16.42,20.97v-20.97h5.93v35.23h-2.51Z"/>
    <path class="cls-1" d="M70.4,140.88h-3.39l-13-35.23h6.79l8.04,23.49,8.49-23.49h6.64l-13.57,35.23Z"/>
    <path class="cls-1" d="M95.08,111.13v8.14h11.48v5.24h-11.48v10.41h15.75v5.48h-21.92v-34.75h22.18v5.48h-16.01Z"/>
    <path class="cls-1" d="M140.61,140.88l-16.87-21.99v21.54h-5.93v-34.78h2.96l16.42,20.97v-20.97h5.93v35.23h-2.51Z"/>
    <path class="cls-1" d="M165.65,111.13v29.27h-6.17v-29.27h-11.05v-5.48h28.78v5.48h-11.55Z"/>
    <path class="cls-1" d="M177.94,122.73c0-4.95,1.36-9.14,4.07-12.56,2.71-3.42,6.34-5.14,10.88-5.14,5,0,8.82,1.55,11.46,4.65,2.64,3.1,3.96,7.45,3.96,13.05s-1.38,10.04-4.14,13.33c-2.76,3.29-6.68,4.93-11.75,4.93-4.67,0-8.24-1.63-10.73-4.89-2.49-3.26-3.74-7.72-3.74-13.38Zm6.41,0c0,4.07,.69,7.21,2.06,9.44,1.38,2.23,3.38,3.35,6,3.35,3.08,0,5.44-1.09,7.06-3.27,1.62-2.18,2.43-5.35,2.43-9.51,0-8.14-3-12.22-9.01-12.22-2.75,0-4.86,1.1-6.33,3.31s-2.21,5.18-2.21,8.91Z"/>
    <path class="cls-1" d="M234.62,140.4l-9.27-14.35c-.93-.02-2.24-.07-3.92-.17v14.52h-6.4v-34.75c.35,0,1.68-.06,4.01-.18,2.33-.12,4.2-.18,5.62-.18,8.82,0,13.24,3.42,13.24,10.25,0,2.06-.61,3.93-1.83,5.62s-2.75,2.89-4.6,3.58l10.27,15.66h-7.12Zm-13.19-29.39v9.65c1.14,.1,2.01,.14,2.61,.14,2.58,0,4.46-.36,5.66-1.09,1.19-.73,1.79-2.14,1.79-4.25,0-1.71-.64-2.9-1.92-3.58-1.28-.68-3.3-1.02-6.05-1.02-.66,0-1.36,.05-2.09,.14Z"/>
    <path class="cls-1" d="M257.35,126.15v14.26h-6.17v-14.26l-11.72-20.5h6.55l8.23,14.83,8.26-14.83h6.52l-11.67,20.5Z"/>
  </g>
</svg>