<?xml version="1.0" encoding="UTF-8"?>
<svg id="Layer_1" data-name="Layer 1" xmlns="http://www.w3.org/2000/svg" viewBox="0 0 388 151">
  <defs>
    <style>
      .cls-1 {
        fill: #fff;
      }
    </style>
  </defs>
  <g>
    <path class="cls-1" d="M80.53,33.5l-22.32-12.58c-.66-.37-1.38-.58-2.11-.65,.02,.24-.13,5.16-.16,6.1l17.82,10.12c.32,.17,.69,.21,1.05,.09l5.63-1.95c.51-.18,.57-.88,.1-1.13Zm16.04,65.52h0s-38.71,23.03-38.71,23.03l-.23,.15-2.89,1.72-2.97-1.77h-.01S13.17,99.16,13.17,99.16v.16l-5.54,2.46c.46,.85,1.14,1.6,2.01,2.11l42.09,25.06,3.01,1.79,3.17-1.89,42.07-25.06c.41-.24,.8-.56,1.12-.91l-4.53-3.86Z"/>
    <polygon class="cls-1" points="96.6 50.35 96.6 50.89 96.59 50.9 96.59 50.36 96.6 50.35"/>
    <path class="cls-1" d="M7,99.33c.01,.86,.24,1.7,.64,2.45h-.02s-.1-.18-.1-.18c-.33-.6-.51-1.27-.51-1.96v-.31Z"/>
    <path class="cls-1" d="M56.1,20.28c-.08,0-.16,0-.24-.01,.07,0,.15,0,.24,0h0Z"/>
    <g>
      <polygon class="cls-1" points="96.59 50.36 96.59 50.9 96.56 50.91 96.56 50.37 96.59 50.36"/>
      <polygon class="cls-1" points="96.6 50.35 96.6 50.89 96.59 50.9 96.59 50.36 96.6 50.35"/>
    </g>
    <g>
      <path class="cls-1" d="M102.46,52.88v46.55c0,1.28-.5,2.53-1.36,3.45l-4.54-3.85h0s.02-.03,.02-.03h-.02s0-48.07,0-48.07h.02s.01-.02,.01-.02v-.54h-.01s0-.01,0-.01l-.02,.03v.54l-41.34,25.91L13.58,51.95l-.4,47.21v.16l-5.54,2.46c-.39-.74-.62-1.58-.63-2.45V48.06c0-1.55,1.2-2.29,1.55-2.47,.01-.01,.02-.02,.03-.02,.69-.38,5.9-2.93,6.41-3.22,.67-.36,18.67-10.33,19.76-10.94,1.07-.6,15.59-8.64,16.25-9,.48-.28,2.1-1.19,2.42-1.35,1.49-.67,1.79-.8,2.41-.8h.02c.09,0,.16,.01,.24,.01,.02,.25-.13,5.17-.15,6.11h-.01v.15L19.05,47.13l.99,.62,34.83,21.4,20.75-12.63,18.57-11.6c1.66-1.04,3.76-1.08,5.47-.14,.84,.46,1.52,1.13,2.02,1.93,.27,.44,.46,.91,.59,1.41,.09,.31,.14,.61,.16,.93l.02,3.82Z"/>
      <polygon class="cls-1" points="96.6 50.35 96.6 50.89 96.59 50.9 96.56 50.91 96.56 50.37 96.59 50.36 96.6 50.35"/>
    </g>
    <g>
      <path class="cls-1" d="M55.43,97.07l-.13-.1-.61-.34-18.69-10.59c-.27-.16-.58,.02-.6,.33l-.26,5.18c-.01,.43,.19,.82,.56,1.02l16.05,9.15v27.03h5.87v-27.07c0-1.9-.83-3.62-2.19-4.6Z"/>
      <path class="cls-1" d="M74.1,86.32c-.02-.3-.37-.49-.63-.33l-18.78,10.64-.52,.29-.13,.1c-1.36,.99-2.18,2.7-2.18,4.6l-.09,20.52v3.3s-.04,3.51-.04,3.51l3.01,1.79,3.17-1.89-.05-6.81-.15-20.39,16.4-9.44c.32-.18,.5-.54,.46-.9l-.47-5.01Z"/>
    </g>
  </g>
  <g>
    <path class="cls-1" d="M113.17,32.8h6.35v24.26c0,1.92,.59,3.49,1.76,4.69s2.79,1.81,4.84,1.81c2.3,0,4.08-.59,5.36-1.77,1.28-1.18,1.92-2.8,1.92-4.85v-24.14h6.35v24.63c0,3.68-1.23,6.57-3.7,8.65-2.47,2.09-5.76,3.13-9.88,3.13s-7.36-1.02-9.61-3.05c-2.26-2.04-3.38-4.95-3.38-8.75v-24.6Z"/>
    <path class="cls-1" d="M181.76,68.62h-6.16l-3.71-19.3-7.21,19.77h-2.27l-7.21-19.77-3.86,19.3h-6.13l7.21-35.82h3.37l7.75,24.11,7.57-24.11h3.35l7.31,35.82Z"/>
    <path class="cls-1" d="M201.53,38.44v30.15h-6.35v-30.15h-11.38v-5.64h29.64v5.64h-11.9Z"/>
    <path class="cls-1" d="M113.29,117.59v-35.79h6.35v35.79h-6.35Z"/>
    <path class="cls-1" d="M151.88,118.08l-17.37-22.65v22.19h-6.11v-35.82h3.05l16.91,21.6v-21.6h6.11v36.28h-2.59Z"/>
    <path class="cls-1" d="M176.44,118.08h-3.49l-13.39-36.28h6.99l8.28,24.19,8.75-24.19h6.84l-13.98,36.28Z"/>
    <path class="cls-1" d="M201.85,87.44v8.38h11.82v5.4h-11.82v10.73h16.22v5.64h-22.58v-35.79h22.84v5.64h-16.49Z"/>
    <path class="cls-1" d="M248.75,118.08l-17.37-22.65v22.19h-6.11v-35.82h3.05l16.91,21.6v-21.6h6.11v36.28h-2.59Z"/>
    <path class="cls-1" d="M274.53,87.44v30.15h-6.35v-30.15h-11.38v-5.64h29.64v5.64h-11.9Z"/>
    <path class="cls-1" d="M287.19,99.39c0-5.1,1.4-9.41,4.19-12.94,2.79-3.53,6.53-5.29,11.2-5.29,5.15,0,9.08,1.6,11.8,4.79,2.72,3.19,4.08,7.67,4.08,13.44s-1.42,10.34-4.26,13.73c-2.84,3.39-6.88,5.08-12.11,5.08-4.81,0-8.49-1.68-11.06-5.03s-3.85-7.95-3.85-13.78Zm6.6,0c0,4.19,.71,7.43,2.13,9.72,1.42,2.3,3.48,3.45,6.18,3.45,3.18,0,5.6-1.12,7.27-3.37,1.67-2.25,2.5-5.51,2.5-9.8,0-8.39-3.09-12.58-9.28-12.58-2.83,0-5.01,1.14-6.52,3.41s-2.27,5.33-2.27,9.17Z"/>
    <path class="cls-1" d="M345.57,117.59l-9.55-14.78c-.96-.02-2.31-.07-4.03-.17v14.95h-6.6v-35.79c.36,0,1.73-.06,4.13-.18,2.4-.12,4.33-.18,5.79-.18,9.09,0,13.63,3.52,13.63,10.55,0,2.12-.63,4.05-1.88,5.79s-2.83,2.97-4.74,3.69l10.58,16.12h-7.33Zm-13.58-30.27v9.94c1.17,.1,2.07,.15,2.69,.15,2.65,0,4.6-.37,5.83-1.12,1.23-.75,1.84-2.21,1.84-4.37,0-1.76-.66-2.99-1.98-3.69-1.32-.7-3.4-1.05-6.23-1.05-.68,0-1.4,.05-2.15,.15Z"/>
    <path class="cls-1" d="M368.98,102.91v14.68h-6.35v-14.68l-12.07-21.11h6.74l8.48,15.27,8.5-15.27h6.72l-12.02,21.11Z"/>
  </g>
</svg>